<?xml version="1.0" encoding="UTF-8"?>
<svg width="30px" height="30px" viewBox="0 0 30 30" version="1.1" xmlns="http://www.w3.org/2000/svg" xmlns:xlink="http://www.w3.org/1999/xlink">
    <title>下载</title>
    <defs>
        <circle id="path-1" cx="15" cy="15" r="15"></circle>
    </defs>
    <g id="方案" stroke="none" stroke-width="1" fill="none" fill-rule="evenodd">
        <g id="存入分享" transform="translate(-256, -269)">
            <g id="下载" transform="translate(256, 269)">
                <mask id="mask-2" fill="white">
                    <use xlink:href="#path-1"></use>
                </mask>
                <use id="蒙版" fill="#000000" xlink:href="#path-1"></use>
                <g id="图形" mask="url(#mask-2)">
                    <g transform="translate(5, 5)" id="编组">
                        <g transform="translate(1.0876, 2.3919)">
                            <path d="M17.674915,7.35805262 C17.112415,5.57055262 15.399915,4.42055262 13.312415,4.42055262 L12.999915,4.42055262 C12.1255935,2.03553054 9.9850133,0.344327229 7.462415,0.045552622 C4.712415,-0.279447378 2.024915,1.15805262 0.749914998,3.60805262 C-0.52048137,6.07605211 -0.15370577,9.06973404 1.674915,11.1580526 C1.974915,11.4955526 2.499915,11.5330526 2.849915,11.2330526 C3.187415,10.9330526 3.224915,10.4080526 2.924915,10.0580526 C1.55103779,8.48841101 1.27363874,6.2394973 2.224915,4.38305262 C3.187415,2.54555262 5.212415,1.45805262 7.274915,1.70805262 C9.34993311,1.95477766 11.0616089,3.44815274 11.587415,5.47055262 C11.687415,5.83305262 12.012415,6.09555262 12.387415,6.09555262 L13.312415,6.09555262 C14.649915,6.09555262 15.737415,6.79555262 16.087415,7.88305262 C16.462415,9.07055262 16.037415,10.3455526 15.012415,11.0705526 C14.6378841,11.3374186 14.5486031,11.8563642 14.812415,12.2330526 C14.9378995,12.4127078 15.1298888,12.5348595 15.3457881,12.5724072 C15.5616874,12.6099549 15.7836441,12.5597938 15.962415,12.4330526 C17.587415,11.2705526 18.274915,9.24555262 17.674915,7.35805262 L17.674915,7.35805262 Z" id="路径" fill="#FFFFFF" fill-rule="nonzero"></path>
                            <path d="M10.862415,11.2580526 L9.749915,12.3705526 L9.749915,7.19555262 C9.749915,6.73305262 9.374915,6.37055262 8.912415,6.37055262 C8.449915,6.37055262 8.087415,6.74555262 8.087415,7.20805262 L8.087415,12.3830526 L6.962415,11.2580526 C6.75252146,11.0481591 6.44659497,10.9661863 6.15987507,11.0430127 C5.87315517,11.1198391 5.64920143,11.3437928 5.57237506,11.6305127 C5.4955487,11.9172326 5.57752146,12.2231591 5.787415,12.4330526 L8.324915,14.9705526 C8.387415,15.0330526 8.449915,15.0580526 8.512415,15.0955526 C8.537415,15.1080526 8.562415,15.1330526 8.587415,15.1455526 C8.687415,15.1830526 8.799915,15.2080526 8.912415,15.2080526 C8.949915,15.2080526 8.974915,15.1955526 9.012415,15.1830526 C9.087415,15.1705526 9.162415,15.1705526 9.224915,15.1330526 C9.337415,15.0955526 9.424915,15.0205526 9.512415,14.9455526 L12.037415,12.4205526 C12.362415,12.0955526 12.362415,11.5705526 12.037415,11.2455526 C11.712415,10.9205526 11.187415,10.9330526 10.862415,11.2580526 L10.862415,11.2580526 Z" id="路径" fill="#FFFFFF" fill-rule="nonzero"></path>
                        </g>
                    </g>
                </g>
            </g>
        </g>
    </g>
</svg>