<?xml version="1.0" standalone="no"?><!DOCTYPE svg PUBLIC "-//W3C//DTD SVG 1.1//EN" "http://www.w3.org/Graphics/SVG/1.1/DTD/svg11.dtd"><svg t="1761646363935" class="icon" viewBox="0 0 1130 1024" version="1.1" xmlns="http://www.w3.org/2000/svg" p-id="8437" xmlns:xlink="http://www.w3.org/1999/xlink" width="220.703125" height="200"><path d="M35.328 679.936h78.336c19.456 0 35.328-15.872 35.328-35.328 0-19.456-15.872-35.328-35.328-35.328H59.904c-9.728 0-17.92-8.192-17.92-17.92s8.192-17.92 17.92-17.92h1052.672c9.728 0 17.92 8.192 17.92 17.92s-8.192 17.92-17.92 17.92h-117.248c-19.456 0-35.328 15.872-35.328 35.328 0 19.456 15.872 35.328 35.328 35.328h14.336c39.424 0 71.168 31.744 71.168 71.168s-31.744 71.168-71.168 71.168h-81.92c-27.136 0-40.448 11.776-40.448 35.328s13.312 35.328 40.448 35.328h89.088c15.872 0 28.672 12.8 28.672 28.16 0 15.872-12.8 28.672-28.16 28.672h-270.336c-11.776 0-21.504 9.728-21.504 21.504 0 11.776 9.728 21.504 21.504 21.504H803.84c7.68 0 14.336 6.144 14.336 14.336s-6.144 14.336-14.336 14.336H355.328c-11.776 0-21.504-9.728-21.504-21.504s9.728-21.504 21.504-21.504h64c11.776 0 21.504-9.728 21.504-21.504s-9.728-21.504-21.504-21.504H198.656c-7.68 0-14.336-6.144-14.336-14.336 0-7.68 6.144-14.336 14.336-14.336h28.672c18.944 0 28.16-7.168 28.16-22.016s-9.216-21.504-28.16-20.48H113.664c-15.872 0-28.672-12.8-28.672-28.672s12.8-28.672 28.672-28.672h21.504c15.872 0 28.672-12.8 28.672-28.672s-12.8-28.672-28.672-28.672H35.328c-19.456 0-35.328-15.872-35.328-35.328s15.36-34.304 35.328-34.304z" fill="#EFF0FE" p-id="8438"></path><path d="M900.608 62.976c-6.144 3.584-12.288 7.168-18.432 10.24-1.536 1.024-2.56 3.072-1.536 4.608 1.024 1.536 3.072 2.56 4.608 1.536 6.144-3.072 12.8-6.656 18.944-10.752 1.536-1.024 2.048-3.072 1.024-5.12-1.024-1.024-3.072-1.536-4.608-0.512z m-37.888 18.944c-6.656 2.56-13.312 4.608-19.968 6.656-2.048 0.512-3.072 2.56-2.56 4.608 0.512 2.048 2.56 3.072 4.608 2.56 7.168-2.048 13.824-4.096 20.48-6.656 2.048-0.512 2.56-3.072 2.048-4.608-0.512-2.56-2.56-3.072-4.608-2.56z m-40.448 11.264c-6.656 1.024-13.824 2.048-20.992 2.56-2.048 0-3.584 2.048-3.072 3.584 0 2.048 2.048 3.584 3.584 3.072 7.168-0.512 14.336-1.536 21.504-2.56 2.048-0.512 3.072-2.048 2.56-4.096 0-1.536-1.536-3.072-3.584-2.56z m-41.984 3.584c-7.168 0-13.824-0.512-20.992-1.024-2.048 0-3.584 1.536-3.584 3.072 0 2.048 1.024 3.584 3.072 3.584 7.168 0.512 14.336 1.024 21.504 1.024 2.048 0 3.584-1.536 3.584-3.584 0-1.536-1.536-3.072-3.584-3.072z m-41.472-4.096c-7.168-1.024-13.824-2.56-20.48-4.608-2.048-0.512-3.584 0.512-4.096 2.56-0.512 2.048 0.512 3.584 2.56 4.096 7.168 1.536 14.336 3.072 20.992 4.608 2.048 0.512 3.584-1.024 4.096-2.56 0-2.048-1.024-3.584-3.072-4.096z m-41.472-10.24c-6.656-2.048-13.312-4.608-19.968-7.168-2.048-0.512-4.096 0.512-4.608 2.048-0.512 1.536 0 3.584 2.048 4.608 6.656 2.56 13.824 5.12 20.48 7.168 2.048 0.512 4.096-0.512 4.608-2.048 0.512-2.048-0.512-4.096-2.56-4.608z m33.792-33.28c-7.168-2.048-13.824-4.096-20.48-5.632-2.048-0.512-4.096 0.512-4.608 2.56-0.512 2.048 0.512 4.096 2.56 4.608 6.656 2.048 13.312 3.584 20.48 5.632 2.048 0.512 4.096-0.512 4.608-2.56 0-2.048-1.024-4.096-2.56-4.608z m-41.472-11.264c-7.168-1.536-13.824-3.584-20.992-5.12-2.048-0.512-3.584 0.512-4.096 2.56-0.512 2.048 0.512 3.584 2.56 4.096 6.656 1.536 13.824 3.072 20.48 5.12 2.048 0.512 3.584-0.512 4.096-2.56 1.024-1.536 0-3.584-2.048-4.096z m-41.984-9.728c-7.168-1.536-13.824-2.56-20.992-4.096-2.048-0.512-3.584 1.024-4.096 3.072-0.512 2.048 1.024 3.584 3.072 4.096 6.656 1.024 13.824 2.56 20.992 4.096 2.048 0.512 3.584-0.512 4.096-2.56 0.512-2.048-1.024-4.096-3.072-4.608 0.512 0 0 0 0 0z m-41.984-7.168c-7.168-1.024-14.336-1.536-21.504-2.048-2.048 0-3.584 1.536-3.584 3.072 0 2.048 1.536 3.584 3.072 3.584 6.656 0.512 13.824 1.024 20.992 2.048 2.048 0 3.584-1.024 4.096-3.072s-1.536-3.072-3.072-3.584z m-43.008-3.072c-7.168 0-14.336 0-21.504 0.512-2.048 0-3.584 2.048-3.072 3.584 0 2.048 2.048 3.584 3.584 3.072 6.656-0.512 13.824-0.512 20.992-0.512 2.048 0 3.584-1.536 3.584-3.584s-2.048-3.072-3.584-3.072z m-43.52 3.584c-7.68 1.536-14.848 3.584-20.992 6.656-1.536 1.024-2.56 3.072-1.536 4.608 1.024 1.536 2.56 2.56 4.608 1.536 5.632-2.56 12.288-4.608 19.456-6.144 2.048-0.512 3.072-2.048 2.56-4.096 0-1.536-2.048-3.072-4.096-2.56z m-40.448 18.944c-5.632 5.12-10.24 11.264-13.824 17.92-1.024 1.536 0 4.096 1.536 4.608 1.536 1.024 4.096 0 4.608-1.536 3.072-6.144 7.168-11.264 12.288-15.872 1.536-1.536 1.536-3.584 0.512-5.12-1.024-1.024-3.584-1.536-5.12 0z m-19.968 38.912c-1.024 6.656-1.024 14.336-0.512 22.016 0 2.048 2.048 3.584 3.584 3.072s3.584-2.048 3.072-3.584c-0.512-6.656-0.512-13.824 0.512-20.48 0.512-2.048-1.024-3.584-3.072-4.096-1.536 0-3.584 1.536-3.584 3.072z m3.584 45.568c5.12 6.656 9.728 12.288 14.336 16.896 1.536 1.536 3.584 1.536 5.12 0 1.536-1.536 1.536-3.584 0-5.12-4.096-4.096-8.704-9.216-13.312-15.872-1.024-1.536-3.584-2.048-5.12-0.512s-2.56 3.072-1.024 4.608z m33.792 28.672c9.216 2.048 17.408-1.536 22.528-9.728 1.024-1.536 0.512-4.096-1.024-5.12-1.536-1.024-3.584-0.512-4.608 1.024-3.584 5.632-8.704 8.192-14.848 6.656-2.048-0.512-3.584 0.512-4.096 2.56-1.024 2.048 0.512 4.096 2.048 4.608z m28.16-33.28c-0.512-9.216-3.584-17.408-8.704-22.528-1.536-1.536-3.584-1.024-5.12 0.512-1.024 1.536-1.024 3.584 0 5.12 3.584 3.584 6.144 10.24 6.656 17.408 0 2.048 1.536 3.584 3.584 3.584 2.048-0.512 3.584-2.048 3.584-4.096zM491.52 95.232c-5.632 2.048-12.288 6.144-18.944 12.288-1.536 1.024-1.536 3.584-0.512 5.12 1.024 1.536 3.584 1.536 5.12 0.512 6.144-5.632 11.776-9.216 16.896-11.264 2.048-0.512 3.072-2.56 2.048-4.608-0.512-2.048-2.56-3.072-4.608-2.048 0.512 0 0 0 0 0z m-34.304 28.16c-4.608 5.632-9.216 11.264-13.312 16.896-1.024 1.536-0.512 3.584 1.024 5.12 1.536 1.024 3.584 0.512 4.608-0.512 4.096-5.632 8.704-11.264 13.312-16.384 1.536-1.536 1.024-3.584-0.512-5.12-1.536-2.048-3.584-1.536-5.12 0z m-24.064 35.84c-3.584 6.144-7.168 11.776-11.264 17.408-1.024 1.536-1.024 3.584 1.024 5.12 1.536 1.024 3.584 1.024 5.12-1.024 4.096-5.632 8.192-11.776 11.776-18.432 1.024-1.536 0.512-4.096-1.024-5.12s-4.608 0.512-5.632 2.048z m-24.576 33.792c-4.608 5.12-9.728 10.24-14.848 14.848-1.536 1.536-1.536 3.584-0.512 5.12s3.584 1.536 5.12 0.512c5.632-4.608 10.752-9.728 15.36-15.36 1.536-1.536 1.536-3.584 0-5.12-1.536-1.536-3.584-1.536-5.12 0z m-31.232 28.16c-5.632 4.096-11.776 7.68-17.408 11.264-1.536 1.024-2.56 3.072-1.536 4.608 1.024 1.536 3.072 2.56 4.608 1.536 6.144-3.584 12.288-7.68 18.432-11.776 1.536-1.024 2.048-3.584 1.024-5.12-1.536-1.536-3.584-1.536-5.12-0.512z m-36.352 20.48c-6.144 2.56-12.8 5.12-19.456 7.68-2.048 0.512-3.072 2.56-2.048 4.608s2.56 3.072 4.608 2.048c6.656-2.56 13.824-5.12 19.968-7.68 2.048-1.024 2.56-3.072 2.048-4.608-1.536-2.048-3.584-2.56-5.12-2.048z m-39.936 13.824c-6.656 1.536-13.824 3.072-20.48 4.096-2.048 0.512-3.072 2.048-3.072 4.096s2.048 3.072 4.096 3.072c7.168-1.024 14.336-2.56 20.992-4.608 2.048-0.512 3.072-2.56 2.56-4.608-0.512-1.536-2.048-2.56-4.096-2.048z m-41.984 6.656c-7.168 0.512-13.824 1.024-20.992 1.024-2.048 0-3.584 1.536-3.584 3.584s1.536 3.584 3.584 3.584h0.512c7.168 0 14.336-0.512 21.504-1.024 2.048 0 3.584-2.048 3.072-4.096 0-1.536-2.048-3.072-4.096-3.072z m-42.496 1.024c-7.168-0.512-13.824-1.024-20.992-1.536-2.048 0-3.584 1.024-4.096 3.072a61480134305755860 61480134305755860 0 0 0 25.088-1.536z m-41.472-4.096c-7.168-1.024-13.824-2.56-20.992-4.096-2.048-0.512-3.584 0.512-4.096 2.56-0.512 2.048 0.512 3.584 2.56 4.096 7.168 1.536 14.336 3.072 20.992 4.096 2.048 0.512 3.584-1.024 4.096-3.072 0.512-1.536-0.512-3.072-2.56-3.584z m-41.472-8.704c-6.656-2.048-13.312-4.096-20.48-6.144-2.048-0.512-4.096 0.512-4.608 2.048-0.512 2.048 0.512 4.096 2.048 4.608 6.656 2.048 13.824 4.096 20.48 6.144 2.048 0.512 4.096-0.512 4.608-2.56 1.024-1.536 0-3.584-2.048-4.096z m-39.936-13.312c-6.656-2.56-12.8-5.12-19.456-8.192-1.536-1.024-4.096 0-4.608 1.536-1.024 1.536 0 4.096 1.536 4.608 6.656 3.072 13.312 5.632 19.968 8.704 2.048 0.512 4.096 0 4.608-2.048 0.512-2.048 0-4.096-2.048-4.608z m-38.4-17.92c-6.144-3.072-12.288-6.656-18.432-10.752-1.536-1.024-4.096-0.512-5.12 1.024-1.024 1.536-0.512 4.096 1.024 5.12 6.144 3.584 12.288 7.168 18.944 10.752 1.536 1.024 4.096 0 4.608-1.536 1.024-1.536 0.512-3.584-1.024-4.608z m-36.352-22.016l-6.144-4.608c-1.536-1.024-3.584-1.024-5.12 0.512-1.024 1.536-1.024 3.584 0.512 5.12l6.144 4.608c1.536 1.024 4.096 0.512 5.12-1.024 1.536-1.536 1.024-3.584-0.512-4.608z m946.176-137.216c15.872 0.512 28.672-12.288 29.184-28.16 0.512-15.872-12.288-28.672-28.16-29.184-15.872-0.512-28.672 12.288-29.184 28.16s12.288 28.672 28.16 29.184z m0.512-14.336c-7.68 0-14.336-6.656-13.824-14.336 0-7.68 6.656-14.336 14.336-13.824 7.68 0 14.336 6.656 13.824 14.336 0 7.68-6.656 13.824-14.336 13.824z" fill="#5F67FF" p-id="8439"></path><path d="M226.816 282.112c-4.096 36.352 33.28 64 79.872 61.952 46.08-2.048 87.04-32.768 91.648-69.12 1.536-12.8-2.048-25.088-6.144-36.864-10.24-37.888-50.176-60.416-100.864-47.104S206.848 246.784 226.816 282.112z" fill="#EFF0FE" p-id="8440"></path><path d="M412.16 209.92c-24.576-47.616-60.928-65.024-107.52-51.2-26.624 6.144-44.544 20.48-57.344 41.472-3.072 5.632-6.144 10.752-9.216 17.92 0-0.512-5.12 11.776-6.144 14.336-11.264 23.04-17.408 30.208-27.136 30.208h-11.264l4.608 10.24c4.608 9.728 26.112 29.184 49.152 40.96 32.768 17.408 68.608 22.016 103.424 8.192 52.736-20.48 73.728-57.856 62.464-110.592v-1.024c-0.512 0.512-1.024-0.512-1.024-0.512zM345.088 308.736c-30.72 11.776-61.952 7.68-91.648-7.68-10.752-5.632-20.992-12.8-30.208-20.992l-6.144-6.144c9.728-4.608 17.408-15.872 27.136-35.84 1.536-3.072 7.168-15.36 6.656-14.848 3.072-6.656 5.632-11.264 8.192-16.384 11.264-17.92 26.112-29.696 48.64-35.328 39.424-11.776 69.12 2.56 90.624 43.52 10.24 45.568-7.168 76.288-53.248 93.696z" fill="#5F67FF" p-id="8441"></path><path d="M326.144 315.392l13.824 3.584c9.216-35.328 18.432-56.832 27.648-65.024l13.312-12.288-17.92-0.512c-13.824 0-37.376-24.064-67.584-72.192l-12.288 7.68c26.624 41.984 48.128 67.584 66.56 75.776-8.192 13.312-15.872 34.304-23.552 62.976z m-71.68-6.144l13.312 4.608c7.68-21.504 12.288-34.816 14.336-38.912l3.072-5.632-5.12-3.584c-6.656-4.608-17.92-18.432-31.744-40.448l-11.776 7.68c12.8 19.456 23.04 33.28 31.232 40.448-3.584 7.168-7.68 18.944-13.312 35.84z" fill="#5F67FF" p-id="8442"></path><path d="M431.616 159.744C384 245.248 309.248 279.552 205.824 262.656c-4.096-0.512-7.68 2.048-8.192 6.144-0.512 4.096 2.048 7.68 6.144 8.192 109.568 17.408 190.464-18.944 240.64-110.08 2.048-3.584 1.024-7.68-2.56-9.728-3.584-2.048-8.192-1.024-10.24 2.56zM1023.488 381.44v-14.336c0-4.096 3.072-7.168 7.168-7.168 4.096 0 7.168 3.072 7.168 7.168v14.336h14.336c4.096 0 7.168 3.072 7.168 7.168s-3.072 7.168-7.168 7.168h-14.336V409.6c0 4.096-3.072 7.168-7.168 7.168-4.096 0-7.168-3.072-7.168-7.168v-14.336h-14.336c-4.096 0-7.168-3.072-7.168-7.168s3.072-7.168 7.168-7.168h14.336v0.512zM177.664 431.104v-14.336c0-4.096 3.072-7.168 7.168-7.168 4.096 0 7.168 3.072 7.168 7.168v14.336h14.336c4.096 0 7.168 3.072 7.168 7.168S209.92 445.44 205.824 445.44h-14.336v14.336c0 4.096-3.072 7.168-7.168 7.168-4.096 0-7.168-3.072-7.168-7.168V445.44h-14.336c-4.096 0-7.168-3.072-7.168-7.168s3.072-7.168 7.168-7.168h14.848zM724.992 301.568h113.664c15.872 0 28.672 12.8 28.672 28.672v512c0 15.872-12.8 28.672-28.672 28.672h-113.664c-15.872 0-28.672-12.8-28.672-28.672v-512c0-15.872 12.8-28.672 28.672-28.672z m0 14.336c-7.68 0-14.336 6.144-14.336 14.336v512c0 7.68 6.144 14.336 14.336 14.336h113.664c7.68 0 14.336-6.144 14.336-14.336v-512c0-7.68-6.144-14.336-14.336-14.336h-113.664zM511.488 443.904h113.664c15.872 0 28.672 12.8 28.672 28.672v369.664c0 15.872-12.8 28.672-28.672 28.672H511.488c-15.872 0-28.672-12.8-28.672-28.672V472.064c0.512-15.872 13.312-28.16 28.672-28.16z m0 13.824c-7.68 0-14.336 6.144-14.336 14.336v369.664c0 7.68 6.144 14.336 14.336 14.336h113.664c7.68 0 14.336-6.144 14.336-14.336V472.064c0-7.68-6.144-14.336-14.336-14.336H511.488z" fill="#5F67FF" p-id="8443"></path><path d="M298.496 656.896h113.664c18.944 0 28.672 9.728 28.672 28.672v156.672c0 18.944-9.728 28.672-28.672 28.672H298.496c-18.944 0-28.672-9.728-28.672-28.672v-156.672c0-18.944 9.728-28.672 28.672-28.672z" fill="#FFFFFF" p-id="8444"></path><path d="M298.496 656.896h113.664c15.872 0 28.672 12.8 28.672 28.672v156.672c0 15.872-12.8 28.672-28.672 28.672H298.496c-15.872 0-28.672-12.8-28.672-28.672v-156.672c0-15.872 12.8-28.672 28.672-28.672z m0 14.336c-7.68 0-14.336 6.144-14.336 14.336v156.672c0 7.68 6.144 14.336 14.336 14.336h113.664c7.68 0 14.336-6.144 14.336-14.336v-156.672c0-7.68-6.144-14.336-14.336-14.336H298.496z" fill="#5F67FF" p-id="8445"></path><path d="M835.072 315.904c9.728 0 17.92 8.192 17.92 17.92v504.832c0 9.728-8.192 17.92-17.92 17.92h-17.92V315.904c7.68-1.024 13.312-1.024 17.92 0z m-212.992 141.824c9.728 0 17.92 8.192 17.92 17.92v362.496c0 9.728-8.192 17.92-17.92 17.92H604.16V457.728c7.168-0.512 13.312-0.512 17.92 0z m-213.504 213.504c9.728 0 17.92 8.192 17.92 17.92v149.504c0 9.728-8.192 17.92-17.92 17.92h-17.92v-184.832c7.68-1.536 13.312-1.536 17.92-0.512z" fill="#EFF0FE" p-id="8446"></path></svg>