<?xml version="1.0" standalone="no"?><!DOCTYPE svg PUBLIC "-//W3C//DTD SVG 1.1//EN" "http://www.w3.org/Graphics/SVG/1.1/DTD/svg11.dtd"><svg height="540" node-id="1" sillyvg="true" template-height="540" template-width="960" version="1.1" viewBox="0 0 960 540" width="960" xmlns="http://www.w3.org/2000/svg" xmlns:xlink="http://www.w3.org/1999/xlink"><defs node-id="95"></defs><g node-id="291"><g node-id="302"><path d="M 820.00 509.85 C 820.00 322.07 667.78 169.85 480.00 169.85 C 292.22 169.85 140.00 322.07 140.00 509.85" fill="#69baf9" fill-opacity="0.2" fill-rule="nonzero" group-id="1,12" id="路径_1806" node-id="3" stroke="none" target-height="340" target-width="680" target-x="140" target-y="169.85"></path></g><g node-id="303"><path d="M 727.62 509.85 C 727.62 373.04 616.71 262.13 479.90 262.13 C 343.09 262.13 232.18 373.04 232.18 509.85" fill="#69baf9" fill-opacity="0.5" fill-rule="nonzero" group-id="1,13" id="路径_1807" node-id="4" stroke="none" target-height="247.72" target-width="495.4389" target-x="232.179" target-y="262.13"></path></g><path d="M 635.60 509.85 C 635.82 424.10 566.48 354.40 480.72 354.18 C 394.97 353.96 325.27 423.30 325.05 509.06 C 325.05 509.32 325.05 509.59 325.05 509.85" fill="#69baf9" fill-opacity="0.7" fill-rule="nonzero" group-id="1,14" id="路径_1808" node-id="5" stroke="none" target-height="155.887" target-width="310.76596" target-x="325.053" target-y="353.963"></path></g><g node-id="292"><path d="M 735.00 510.00 L 471.00 510.00 C 468.24 510.00 466.00 507.76 466.00 505.00 C 466.00 502.24 468.24 500.00 471.00 500.00 L 735.00 500.00 C 737.76 500.00 740.00 502.24 740.00 505.00 C 740.00 507.76 737.76 510.00 735.00 510.00 Z" fill="#3d3d63" fill-rule="nonzero" group-id="2" node-id="112" stroke="none" target-height="10" target-width="274" target-x="466" target-y="500"></path><path d="M 814.00 510.00 L 756.00 510.00 C 753.24 510.00 751.00 507.76 751.00 505.00 C 751.00 502.24 753.24 500.00 756.00 500.00 L 814.00 500.00 C 816.76 500.00 819.00 502.24 819.00 505.00 C 819.00 507.76 816.76 510.00 814.00 510.00 Z" fill="#3d3d63" fill-rule="nonzero" group-id="2" node-id="114" stroke="none" target-height="10" target-width="67.99994" target-x="751.00006" target-y="500"></path><path d="M 419.00 510.00 L 359.00 510.00 C 356.24 510.00 354.00 507.76 354.00 505.00 C 354.00 502.24 356.24 500.00 359.00 500.00 L 419.00 500.00 C 421.76 500.00 424.00 502.24 424.00 505.00 C 424.00 507.76 421.76 510.00 419.00 510.00 Z" fill="#3d3d63" fill-rule="nonzero" group-id="2" node-id="116" stroke="none" target-height="10" target-width="70" target-x="354" target-y="500"></path><path d="M 324.00 510.00 L 146.00 510.00 C 143.24 510.00 141.00 507.76 141.00 505.00 C 141.00 502.24 143.24 500.00 146.00 500.00 L 324.00 500.00 C 326.76 500.00 329.00 502.24 329.00 505.00 C 329.00 507.76 326.76 510.00 324.00 510.00 Z" fill="#3d3d63" fill-rule="nonzero" group-id="2" node-id="118" stroke="none" target-height="10" target-width="188.00006" target-x="141" target-y="500"></path><path d="M 447.00 505.00 C 447.00 507.21 444.76 509.00 442.00 509.00 C 439.24 509.00 437.00 507.21 437.00 505.00 C 437.00 502.79 439.24 501.00 442.00 501.00 C 444.76 501.00 447.00 502.79 447.00 505.00 Z" fill="#3d3d63" fill-rule="nonzero" group-id="2" id="椭圆_336" node-id="11" stroke="none" target-height="8" target-width="10" target-x="437" target-y="501"></path></g><g node-id="293"><path d="M 696.00 266.00 C 696.00 385.29 599.29 482.00 480.00 482.00 C 360.71 482.00 264.00 385.29 264.00 266.00 C 264.00 146.71 360.71 50.00 480.00 50.00 C 599.29 50.00 696.00 146.71 696.00 266.00 Z" fill="#fbd45c" fill-rule="nonzero" group-id="3" node-id="123" stroke="none" target-height="432" target-width="432" target-x="264" target-y="50"></path><path d="M 480.00 482.00 C 422.30 482.00 368.06 459.53 327.26 418.74 C 286.47 377.94 264.00 323.69 264.00 266.00 C 264.00 208.30 286.47 154.06 327.26 113.27 C 368.06 72.47 422.30 50.00 480.00 50.00 C 537.70 50.00 591.94 72.47 632.74 113.27 C 673.53 154.06 696.00 208.30 696.00 266.00 C 696.00 323.69 673.53 377.94 632.74 418.74 C 591.94 459.53 537.70 482.00 480.00 482.00 Z M 480.00 70.00 C 371.93 70.00 284.00 157.93 284.00 266.00 C 284.00 374.07 371.93 462.00 480.00 462.00 C 588.08 462.00 676.00 374.07 676.00 266.00 C 676.00 157.93 588.08 70.00 480.00 70.00 Z" fill="#3d3d63" fill-rule="nonzero" group-id="3" node-id="125" stroke="none" target-height="432" target-width="432" target-x="264" target-y="50"></path></g><g node-id="294"><path d="M 470.00 51.00 L 490.00 51.00 L 490.00 481.00 L 470.00 481.00 Z" fill="#3d3d63" fill-rule="nonzero" group-id="4" node-id="129" stroke="none" target-height="430" target-width="20" target-x="470" target-y="51"></path><path d="M 265.00 256.00 L 695.00 256.00 L 695.00 276.00 L 265.00 276.00 Z" fill="#3d3d63" fill-rule="nonzero" group-id="4" node-id="131" stroke="none" target-height="20" target-width="430" target-x="265" target-y="256"></path></g><g node-id="295"><g node-id="305"><path d="M 661.19 149.83 L 671.19 167.15 L 298.80 382.14 L 288.80 364.82 Z" fill="#3d3d63" fill-rule="nonzero" group-id="5,15" node-id="137" stroke="none" target-height="232.31079" target-width="382.385" target-x="288.80334" target-y="149.83237"></path></g><path d="M 381.16 74.80 L 596.15 447.18 L 578.83 457.18 L 363.84 84.79 Z" fill="#3d3d63" fill-rule="nonzero" group-id="5,16" node-id="142" stroke="none" target-height="382.38507" target-width="232.31082" target-x="363.83847" target-y="74.79529"></path></g><g node-id="296"><g node-id="307"><path d="M 671.21 364.83 L 661.21 382.15 L 288.82 167.16 L 298.82 149.84 Z" fill="#3d3d63" fill-rule="nonzero" group-id="6,17" node-id="149" stroke="none" target-height="232.3108" target-width="382.385" target-x="288.82025" target-y="149.8426"></path></g><path d="M 596.17 84.81 L 381.18 457.19 L 363.86 447.19 L 578.85 74.81 Z" fill="#3d3d63" fill-rule="nonzero" group-id="6,18" node-id="154" stroke="none" target-height="382.385" target-width="232.31079" target-x="363.85846" target-y="74.80751"></path></g><g node-id="297"><path d="M 650.00 266.00 C 650.00 359.89 573.89 436.00 480.00 436.00 C 386.11 436.00 310.00 359.89 310.00 266.00 C 310.00 172.11 386.11 96.00 480.00 96.00 C 573.89 96.00 650.00 172.11 650.00 266.00 Z" fill="#ffac6c" fill-rule="nonzero" group-id="7" node-id="159" stroke="none" target-height="340" target-width="340" target-x="310" target-y="96"></path><path d="M 480.00 436.00 C 386.26 436.00 310.00 359.74 310.00 266.00 C 310.00 172.26 386.26 96.00 480.00 96.00 C 573.74 96.00 650.00 172.26 650.00 266.00 C 650.00 359.74 573.74 436.00 480.00 436.00 Z M 480.00 116.00 C 397.29 116.00 330.00 183.29 330.00 266.00 C 330.00 348.71 397.29 416.00 480.00 416.00 C 562.71 416.00 630.00 348.71 630.00 266.00 C 630.00 183.29 562.71 116.00 480.00 116.00 Z" fill="#3d3d63" fill-rule="nonzero" group-id="7" node-id="161" stroke="none" target-height="340" target-width="340" target-x="310" target-y="96"></path></g><g node-id="298"><g node-id="309"><path d="M 505.00 358.00 L 402.00 358.00 C 394.28 358.00 388.00 351.72 388.00 344.00 C 388.00 336.28 394.28 330.00 402.00 330.00 L 405.00 330.00 L 413.00 330.00 L 413.00 322.00 L 413.00 210.00 L 413.00 202.00 L 405.00 202.00 L 402.00 202.00 C 394.28 202.00 388.00 195.72 388.00 188.00 C 388.00 180.28 394.28 174.00 402.00 174.00 L 505.00 174.00 C 512.72 174.00 519.00 180.28 519.00 188.00 C 519.00 195.72 512.72 202.00 505.00 202.00 L 449.00 202.00 L 441.00 202.00 L 441.00 210.00 L 441.00 322.00 L 441.00 330.00 L 449.00 330.00 L 505.00 330.00 C 512.72 330.00 519.00 336.28 519.00 344.00 C 519.00 351.72 512.72 358.00 505.00 358.00 Z" fill="#ffffff" fill-rule="nonzero" group-id="8,19" node-id="166" stroke="none" target-height="184" target-width="131" target-x="388" target-y="174"></path><path d="M 505.00 350.00 C 508.31 350.00 511.00 347.31 511.00 344.00 C 511.00 340.69 508.31 338.00 505.00 338.00 L 449.00 338.00 C 440.16 338.00 433.00 330.84 433.00 322.00 L 433.00 210.00 C 433.00 201.16 440.16 194.00 449.00 194.00 L 505.00 194.00 C 508.31 194.00 511.00 191.31 511.00 188.00 C 511.00 184.69 508.31 182.00 505.00 182.00 L 402.00 182.00 C 398.69 182.00 396.00 184.69 396.00 188.00 C 396.00 191.31 398.69 194.00 402.00 194.00 L 405.00 194.00 C 413.84 194.00 421.00 201.16 421.00 210.00 L 421.00 322.00 C 421.00 330.84 413.84 338.00 405.00 338.00 L 402.00 338.00 C 398.69 338.00 396.00 340.69 396.00 344.00 C 396.00 347.31 398.69 350.00 402.00 350.00 L 505.00 350.00 M 505.00 366.00 L 402.00 366.00 C 389.85 366.00 380.00 356.15 380.00 344.00 C 380.00 331.85 389.85 322.00 402.00 322.00 L 405.00 322.00 L 405.00 210.00 L 402.00 210.00 C 389.85 210.00 380.00 200.15 380.00 188.00 C 380.00 175.85 389.85 166.00 402.00 166.00 L 505.00 166.00 C 517.15 166.00 527.00 175.85 527.00 188.00 C 527.00 200.15 517.15 210.00 505.00 210.00 L 449.00 210.00 L 449.00 322.00 L 505.00 322.00 C 517.15 322.00 527.00 331.85 527.00 344.00 C 527.00 356.15 517.15 366.00 505.00 366.00 Z" fill="#3d3d63" fill-rule="nonzero" group-id="8,19" node-id="168" stroke="none" target-height="200" target-width="147" target-x="380" target-y="166"></path></g><path d="M 449.00 194.00 L 554.00 194.00 L 554.00 338.00 L 449.00 338.00 Z" fill="#ffffff" fill-rule="nonzero" group-id="8" id="矩形_1195" node-id="31" stroke="none" target-height="144" target-width="105" target-x="449" target-y="194"></path><g node-id="310"><path d="M 472.21 173.97 L 518.60 173.97 C 547.83 173.96 571.54 197.63 571.55 226.86 C 571.56 241.72 565.33 255.90 554.37 265.93" fill="#ffffff" fill-rule="nonzero" group-id="8,20" id="路径_1960_1_" node-id="33" stroke="none" target-height="91.97601" target-width="99.354034" target-x="472.21" target-y="173.956"></path><path d="M 554.37 273.93 C 552.20 273.93 550.04 273.06 548.47 271.33 C 545.48 268.07 545.71 263.01 548.97 260.03 C 558.24 251.54 563.56 239.45 563.55 226.87 C 563.55 214.87 558.87 203.59 550.38 195.11 C 541.89 186.64 530.62 181.97 518.63 181.97 C 518.62 181.97 518.62 181.97 518.61 181.97 L 472.21 181.97 C 467.79 181.97 464.21 178.39 464.21 173.97 C 464.21 169.56 467.79 165.97 472.21 165.97 L 518.60 165.97 C 518.61 165.97 518.63 165.97 518.64 165.97 C 552.21 165.97 579.53 193.28 579.55 226.86 C 579.57 243.92 572.35 260.31 559.77 271.83 C 558.23 273.24 556.30 273.93 554.37 273.93 Z" fill="#3d3d63" fill-rule="nonzero" group-id="8,20" node-id="175" stroke="none" target-height="107.95801" target-width="115.35501" target-x="464.21" target-y="165.975"></path></g><g node-id="311"><path d="M 554.65 266.26 C 576.07 286.17 577.30 319.67 557.39 341.10 C 547.37 351.88 533.32 358.00 518.60 358.00 L 473.26 358.00" fill="#ffffff" fill-rule="nonzero" group-id="8,21" id="路径_1961_1_" node-id="36" stroke="none" target-height="91.745056" target-width="104.040985" target-x="473.259" target-y="266.257"></path><path d="M 518.60 366.00 L 473.26 366.00 C 468.84 366.00 465.26 362.42 465.26 358.00 C 465.26 353.58 468.84 350.00 473.26 350.00 L 518.60 350.00 C 531.05 350.00 543.06 344.77 551.53 335.65 C 568.41 317.49 567.36 288.99 549.20 272.12 C 545.97 269.11 545.78 264.05 548.79 260.81 C 551.80 257.58 556.86 257.39 560.10 260.40 C 572.02 271.48 578.92 286.54 579.52 302.81 C 580.11 319.08 574.34 334.61 563.25 346.54 C 551.76 358.91 535.49 366.00 518.60 366.00 Z" fill="#3d3d63" fill-rule="nonzero" group-id="8,21" node-id="181" stroke="none" target-height="108.612" target-width="114.85297" target-x="465.26" target-y="257.39"></path></g><g node-id="312"><path d="M 464.92 251.99 L 514.94 251.99 C 529.92 251.99 542.07 240.80 542.07 226.99 C 542.07 213.18 529.92 202.00 514.94 202.00 L 441.05 202.00 L 441.05 251.99 L 464.92 251.99 Z" fill="#ffac6c" fill-rule="nonzero" group-id="8,22" id="路径_1959_1_" node-id="39" stroke="none" target-height="49.99301" target-width="101.02698" target-x="441.047" target-y="202"></path><path d="M 514.94 259.99 L 441.05 259.99 C 436.63 259.99 433.05 256.41 433.05 251.99 L 433.05 202.00 C 433.05 197.58 436.63 194.00 441.05 194.00 L 514.94 194.00 C 534.31 194.00 550.07 208.80 550.07 226.99 C 550.07 245.19 534.31 259.99 514.94 259.99 Z M 449.05 243.99 L 514.94 243.99 C 525.49 243.99 534.07 236.37 534.07 226.99 C 534.07 217.62 525.49 210.00 514.94 210.00 L 449.05 210.00 L 449.05 243.99 Z" fill="#3d3d63" fill-rule="nonzero" group-id="8,22" node-id="187" stroke="none" target-height="65.99301" target-width="117.02701" target-x="433.04697" target-y="194"></path></g><g node-id="313"><path d="M 464.87 329.99 L 514.91 329.99 C 529.91 329.99 542.06 318.80 542.06 304.99 C 542.06 291.18 529.90 280.00 514.91 280.00 L 440.98 280.00 L 440.98 329.99 L 464.87 329.99 Z" fill="#ffac6c" fill-rule="nonzero" group-id="8,23" id="路径_1963_1_" node-id="42" stroke="none" target-height="49.99301" target-width="101.08197" target-x="440.976" target-y="280"></path><path d="M 514.91 337.99 L 440.98 337.99 C 436.56 337.99 432.98 334.41 432.98 329.99 L 432.98 280.00 C 432.98 275.58 436.56 272.00 440.98 272.00 L 514.91 272.00 C 534.29 272.00 550.06 286.80 550.06 304.99 C 550.06 323.19 534.29 337.99 514.91 337.99 Z M 448.98 321.99 L 514.91 321.99 C 525.47 321.99 534.06 314.37 534.06 304.99 C 534.06 295.62 525.47 288.00 514.91 288.00 L 448.98 288.00 L 448.98 321.99 Z" fill="#3d3d63" fill-rule="nonzero" group-id="8,23" node-id="193" stroke="none" target-height="65.99301" target-width="117.08304" target-x="432.97598" target-y="272"></path></g></g><path d="M 426.25 355.25 L 459.75 355.25 L 459.75 355.25 L 459.75 372.00 C 459.75 381.25 452.25 388.75 443.00 388.75 L 443.00 388.75 C 433.75 388.75 426.25 381.25 426.25 372.00 L 426.25 355.25 L 426.25 355.25 Z" fill="#ffffff" fill-rule="nonzero" node-id="197" stroke="none" target-height="33.5" target-width="33.5" target-x="426.25" target-y="355.25"></path><path d="M 443.00 394.00 C 430.87 394.00 421.00 384.13 421.00 372.00 L 421.00 366.00 C 421.00 357.18 428.18 350.00 437.00 350.00 L 449.00 350.00 C 457.82 350.00 465.00 357.18 465.00 366.00 L 465.00 372.00 C 465.00 384.13 455.13 394.00 443.00 394.00 Z M 437.00 366.00 L 437.00 372.00 C 437.00 375.31 439.69 378.00 443.00 378.00 C 446.31 378.00 449.00 375.31 449.00 372.00 L 449.00 366.00 L 437.00 366.00 Z" fill="#3d3d63" fill-rule="nonzero" node-id="199" stroke="none" target-height="44" target-width="44" target-x="421" target-y="350"></path><path d="M 484.58 354.58 L 519.42 354.58 L 519.42 354.58 L 519.42 372.00 C 519.42 381.62 511.62 389.42 502.00 389.42 L 502.00 389.42 C 492.38 389.42 484.58 381.62 484.58 372.00 L 484.58 354.58 L 484.58 354.58 Z" fill="#ffffff" fill-rule="nonzero" node-id="201" stroke="none" target-height="34.833984" target-width="34.833984" target-x="484.583" target-y="354.583"></path><path d="M 502.00 394.00 C 489.87 394.00 480.00 384.13 480.00 372.00 L 480.00 366.00 C 480.00 357.18 487.18 350.00 496.00 350.00 L 508.00 350.00 C 516.82 350.00 524.00 357.18 524.00 366.00 L 524.00 372.00 C 524.00 384.13 514.13 394.00 502.00 394.00 Z M 496.00 366.00 L 496.00 372.00 C 496.00 375.31 498.69 378.00 502.00 378.00 C 505.31 378.00 508.00 375.31 508.00 372.00 L 508.00 366.00 L 496.00 366.00 Z" fill="#3d3d63" fill-rule="nonzero" node-id="203" stroke="none" target-height="44" target-width="44" target-x="480" target-y="350"></path><path d="M 502.00 143.00 L 502.00 143.00 C 511.39 143.00 519.00 150.61 519.00 160.00 L 519.00 177.00 L 519.00 177.00 L 485.00 177.00 L 485.00 177.00 L 485.00 160.00 C 485.00 150.61 492.61 143.00 502.00 143.00 Z" fill="#ffffff" fill-rule="nonzero" node-id="205" stroke="none" target-height="34" target-width="34" target-x="485" target-y="143"></path><path d="M 508.00 182.00 L 496.00 182.00 C 487.18 182.00 480.00 174.82 480.00 166.00 L 480.00 160.00 C 480.00 147.87 489.87 138.00 502.00 138.00 C 514.13 138.00 524.00 147.87 524.00 160.00 L 524.00 166.00 C 524.00 174.82 516.82 182.00 508.00 182.00 Z M 502.00 154.00 C 498.69 154.00 496.00 156.69 496.00 160.00 L 496.00 166.00 L 508.00 166.00 C 508.01 166.00 508.01 166.00 508.01 166.00 L 508.00 160.00 C 508.00 156.69 505.31 154.00 502.00 154.00 Z" fill="#3d3d63" fill-rule="nonzero" node-id="207" stroke="none" target-height="44" target-width="44" target-x="480" target-y="138"></path><path d="M 443.00 144.25 L 443.00 144.25 C 451.70 144.25 458.75 151.30 458.75 160.00 L 458.75 175.75 L 458.75 175.75 L 427.25 175.75 L 427.25 175.75 L 427.25 160.00 C 427.25 151.30 434.30 144.25 443.00 144.25 Z" fill="#ffffff" fill-rule="nonzero" node-id="209" stroke="none" target-height="31.5" target-width="31.5" target-x="427.25" target-y="144.25"></path><path d="M 449.00 182.00 L 437.00 182.00 C 428.18 182.00 421.00 174.82 421.00 166.00 L 421.00 160.00 C 421.00 147.87 430.87 138.00 443.00 138.00 C 455.13 138.00 465.00 147.87 465.00 160.00 L 465.00 166.00 C 465.00 174.82 457.82 182.00 449.00 182.00 Z M 443.00 154.00 C 439.69 154.00 437.00 156.69 437.00 160.00 L 437.00 166.00 L 449.00 166.00 C 449.01 166.00 449.01 166.00 449.01 166.00 L 449.00 160.00 C 449.00 156.69 446.31 154.00 443.00 154.00 Z" fill="#3d3d63" fill-rule="nonzero" node-id="211" stroke="none" target-height="44" target-width="44" target-x="421" target-y="138"></path><g node-id="299"><g node-id="314"><path d="M 370.00 266.00 C 370.00 273.18 364.18 279.00 357.00 279.00 C 349.82 279.00 344.00 273.18 344.00 266.00 C 344.00 258.82 349.82 253.00 357.00 253.00 C 364.18 253.00 370.00 258.82 370.00 266.00 Z" fill="#ffac6c" fill-rule="nonzero" group-id="9,24" node-id="215" stroke="none" target-height="26" target-width="26" target-x="344" target-y="253"></path><path d="M 357.00 279.00 C 349.83 279.00 344.00 273.17 344.00 266.00 C 344.00 258.83 349.83 253.00 357.00 253.00 C 364.17 253.00 370.00 258.83 370.00 266.00 C 370.00 273.17 364.17 279.00 357.00 279.00 Z M 357.00 259.00 C 353.14 259.00 350.00 262.14 350.00 266.00 C 350.00 269.86 353.14 273.00 357.00 273.00 C 360.86 273.00 364.00 269.86 364.00 266.00 C 364.00 262.14 360.86 259.00 357.00 259.00 Z" fill="#3d3d63" fill-rule="nonzero" group-id="9,24" node-id="217" stroke="none" target-height="26" target-width="26" target-x="344" target-y="253"></path></g><path d="M 370.00 227.00 C 370.00 230.87 366.87 234.00 363.00 234.00 C 359.13 234.00 356.00 230.87 356.00 227.00 C 356.00 223.13 359.13 220.00 363.00 220.00 C 366.87 220.00 370.00 223.13 370.00 227.00 Z" fill="#3d3d63" fill-rule="nonzero" group-id="9" id="椭圆_438" node-id="56" stroke="none" target-height="14" target-width="14" target-x="356" target-y="220"></path><path d="M 370.00 305.00 C 370.00 308.87 366.87 312.00 363.00 312.00 C 359.13 312.00 356.00 308.87 356.00 305.00 C 356.00 301.13 359.13 298.00 363.00 298.00 C 366.87 298.00 370.00 301.13 370.00 305.00 Z" fill="#3d3d63" fill-rule="nonzero" group-id="9" id="椭圆_438-2" node-id="57" stroke="none" target-height="14" target-width="14" target-x="356" target-y="298"></path></g><g node-id="300"><g node-id="315"><path d="M 619.00 266.00 C 619.00 273.18 613.18 279.00 606.00 279.00 C 598.82 279.00 593.00 273.18 593.00 266.00 C 593.00 258.82 598.82 253.00 606.00 253.00 C 613.18 253.00 619.00 258.82 619.00 266.00 Z" fill="#ffac6c" fill-rule="nonzero" group-id="10,25" node-id="225" stroke="none" target-height="26" target-width="26" target-x="593" target-y="253"></path><path d="M 606.00 279.00 C 598.83 279.00 593.00 273.17 593.00 266.00 C 593.00 258.83 598.83 253.00 606.00 253.00 C 613.17 253.00 619.00 258.83 619.00 266.00 C 619.00 273.17 613.17 279.00 606.00 279.00 Z M 606.00 259.00 C 602.14 259.00 599.00 262.14 599.00 266.00 C 599.00 269.86 602.14 273.00 606.00 273.00 C 609.86 273.00 613.00 269.86 613.00 266.00 C 613.00 262.14 609.86 259.00 606.00 259.00 Z" fill="#3d3d63" fill-rule="nonzero" group-id="10,25" node-id="227" stroke="none" target-height="26" target-width="26" target-x="593" target-y="253"></path></g><path d="M 607.00 227.00 C 607.00 230.87 603.87 234.00 600.00 234.00 C 596.13 234.00 593.00 230.87 593.00 227.00 C 593.00 223.13 596.13 220.00 600.00 220.00 C 603.87 220.00 607.00 223.13 607.00 227.00 Z" fill="#3d3d63" fill-rule="nonzero" group-id="10" id="椭圆_440" node-id="62" stroke="none" target-height="14" target-width="14" target-x="593" target-y="220"></path><path d="M 607.00 305.00 C 607.00 308.87 603.87 312.00 600.00 312.00 C 596.13 312.00 593.00 308.87 593.00 305.00 C 593.00 301.13 596.13 298.00 600.00 298.00 C 603.87 298.00 607.00 301.13 607.00 305.00 Z" fill="#3d3d63" fill-rule="nonzero" group-id="10" id="椭圆_439" node-id="63" stroke="none" target-height="14" target-width="14" target-x="593" target-y="298"></path></g><g node-id="301"><g node-id="316"><path d="M 689.66 443.20 L 656.97 443.20 C 654.76 443.20 652.97 441.41 652.97 439.20 C 652.97 436.99 654.76 435.20 656.97 435.20 L 689.66 435.20 C 691.87 435.20 693.66 436.99 693.66 439.20 C 693.66 441.41 691.87 443.20 689.66 443.20 Z" fill="#077af1" fill-rule="nonzero" group-id="11,26" node-id="235" stroke="none" target-height="8" target-width="40.692017" target-x="652.97003" target-y="435.20102"></path><path d="M 673.32 459.55 C 671.11 459.55 669.32 457.76 669.32 455.55 L 669.32 422.86 C 669.32 420.65 671.11 418.86 673.32 418.86 C 675.52 418.86 677.32 420.65 677.32 422.86 L 677.32 455.55 C 677.32 457.76 675.52 459.55 673.32 459.55 Z" fill="#077af1" fill-rule="nonzero" group-id="11,26" node-id="237" stroke="none" target-height="40.691986" target-width="8" target-x="669.31604" target-y="418.855"></path></g><g node-id="317"><g node-id="322"><g node-id="323"><path d="M 644.91 299.16 C 642.70 299.16 640.91 297.37 640.91 295.16 L 640.91 287.84 C 640.91 285.63 642.70 283.84 644.91 283.84 C 647.12 283.84 648.91 285.63 648.91 287.84 L 648.91 295.16 C 648.91 297.37 647.12 299.16 644.91 299.16 Z" fill="#077af1" fill-rule="nonzero" group-id="11,27,32,33" node-id="243" stroke="none" target-height="15.321991" target-width="8" target-x="640.908" target-y="283.837"></path><path d="M 644.91 331.85 C 642.70 331.85 640.91 330.06 640.91 327.85 L 640.91 320.53 C 640.91 318.32 642.70 316.53 644.91 316.53 C 647.12 316.53 648.91 318.32 648.91 320.53 L 648.91 327.85 C 648.91 330.06 647.12 331.85 644.91 331.85 Z" fill="#077af1" fill-rule="nonzero" group-id="11,27,32,33" node-id="245" stroke="none" target-height="15.3220215" target-width="8" target-x="640.908" target-y="316.53"></path></g><g node-id="324"><path d="M 632.22 311.84 L 624.90 311.84 C 622.69 311.84 620.90 310.05 620.90 307.84 C 620.90 305.63 622.69 303.84 624.90 303.84 L 632.22 303.84 C 634.43 303.84 636.22 305.63 636.22 307.84 C 636.22 310.05 634.43 311.84 632.22 311.84 Z" fill="#077af1" fill-rule="nonzero" group-id="11,27,32,34" node-id="249" stroke="none" target-height="8" target-width="15.320984" target-x="620.901" target-y="303.844"></path><path d="M 664.91 311.84 L 657.59 311.84 C 655.38 311.84 653.59 310.05 653.59 307.84 C 653.59 305.63 655.38 303.84 657.59 303.84 L 664.91 303.84 C 667.12 303.84 668.91 305.63 668.91 307.84 C 668.91 310.05 667.12 311.84 664.91 311.84 Z" fill="#077af1" fill-rule="nonzero" group-id="11,27,32,34" node-id="251" stroke="none" target-height="8" target-width="15.32196" target-x="653.593" target-y="303.844"></path></g><g node-id="325"><path d="M 635.94 302.88 C 634.92 302.87 633.89 302.48 633.11 301.70 L 627.93 296.53 C 626.37 294.96 626.37 292.43 627.93 290.87 C 629.49 289.31 632.03 289.31 633.59 290.87 L 638.77 296.05 C 640.33 297.61 640.33 300.14 638.77 301.70 C 637.99 302.48 636.96 302.88 635.94 302.88 Z" fill="#077af1" fill-rule="nonzero" group-id="11,27,32,35" node-id="255" stroke="none" target-height="13.569397" target-width="13.959656" target-x="626.3699" target-y="289.30585"></path><path d="M 659.05 325.99 C 658.03 325.99 657.01 325.60 656.23 324.82 L 651.05 319.64 C 649.49 318.08 649.49 315.55 651.05 313.99 C 652.61 312.42 655.15 312.42 656.71 313.99 L 661.88 319.16 C 663.45 320.72 663.45 323.26 661.88 324.82 C 661.10 325.60 660.08 325.99 659.05 325.99 Z" fill="#077af1" fill-rule="nonzero" group-id="11,27,32,35" node-id="257" stroke="none" target-height="13.567963" target-width="13.958984" target-x="649.4873" target-y="312.4233"></path></g><g node-id="326"><path d="M 653.88 302.87 C 652.85 302.87 651.83 302.48 651.05 301.70 C 649.49 300.14 649.49 297.61 651.05 296.05 L 656.23 290.87 C 657.79 289.31 660.32 289.31 661.88 290.87 C 663.45 292.43 663.45 294.96 661.88 296.53 L 656.71 301.70 C 655.93 302.48 654.90 302.87 653.88 302.87 Z" fill="#077af1" fill-rule="nonzero" group-id="11,27,32,36" node-id="261" stroke="none" target-height="13.568665" target-width="13.958984" target-x="649.4873" target-y="289.3057"></path><path d="M 630.76 325.99 C 629.74 325.99 628.71 325.60 627.93 324.82 C 626.37 323.26 626.37 320.72 627.93 319.16 L 633.11 313.99 C 634.67 312.42 637.21 312.42 638.77 313.99 C 640.33 315.55 640.33 318.08 638.77 319.64 L 633.59 324.82 C 632.81 325.60 631.78 325.99 630.76 325.99 Z" fill="#077af1" fill-rule="nonzero" group-id="11,27,32,36" node-id="263" stroke="none" target-height="13.568665" target-width="13.959656" target-x="626.3699" target-y="312.42242"></path></g></g></g><g node-id="318"><path d="M 765.93 248.78 C 775.29 248.78 782.88 241.19 782.88 231.82 C 782.88 222.46 775.29 214.88 765.93 214.88 C 756.57 214.88 748.98 222.46 748.98 231.82 C 748.98 241.19 756.56 248.78 765.93 248.78 Z" fill="none" group-id="11,28" node-id="269" stroke="none" target-height="33.899994" target-width="33.900024" target-x="748.976" target-y="214.875"></path><path d="M 765.93 240.77 C 770.86 240.77 774.88 236.76 774.88 231.82 C 774.88 226.89 770.86 222.88 765.93 222.88 C 760.99 222.88 756.98 226.89 756.98 231.82 C 756.98 236.76 760.99 240.77 765.93 240.77 M 765.93 248.77 C 756.56 248.77 748.98 241.19 748.98 231.82 C 748.98 222.46 756.56 214.88 765.93 214.88 C 775.29 214.88 782.88 222.46 782.88 231.82 C 782.88 241.19 775.29 248.77 765.93 248.77 Z" fill="#077af1" fill-rule="nonzero" group-id="11,28" node-id="271" stroke="none" target-height="33.899002" target-width="33.898987" target-x="748.976" target-y="214.875"></path></g><g node-id="319"><path d="M 672.29 87.25 C 680.10 87.25 686.42 80.93 686.42 73.13 C 686.42 65.33 680.10 59.00 672.29 59.00 C 664.49 59.00 658.17 65.33 658.17 73.13 C 658.17 80.93 664.49 87.25 672.29 87.25 Z" fill="none" group-id="11,29" node-id="275" stroke="none" target-height="28.253998" target-width="28.254028" target-x="658.167" target-y="59"></path><path d="M 672.29 79.25 C 675.67 79.25 678.42 76.50 678.42 73.13 C 678.42 69.75 675.67 67.00 672.29 67.00 C 668.92 67.00 666.17 69.75 666.17 73.13 C 666.17 76.50 668.92 79.25 672.29 79.25 M 672.29 87.25 C 664.49 87.25 658.17 80.93 658.17 73.13 C 658.17 65.33 664.49 59.00 672.29 59.00 C 680.10 59.00 686.42 65.33 686.42 73.13 C 686.42 80.93 680.10 87.25 672.29 87.25 Z" fill="#077af1" fill-rule="nonzero" group-id="11,29" node-id="277" stroke="none" target-height="28.253998" target-width="28.254028" target-x="658.167" target-y="59"></path></g><g node-id="320"><path d="M 241.28 361.86 C 252.52 361.86 261.64 352.74 261.64 341.50 C 261.64 330.26 252.52 321.14 241.28 321.14 C 230.04 321.14 220.93 330.26 220.93 341.50 C 220.93 352.74 230.04 361.86 241.28 361.86 Z" fill="none" group-id="11,30" node-id="281" stroke="none" target-height="40.712006" target-width="40.712006" target-x="220.926" target-y="321.143"></path><path d="M 241.28 353.85 C 248.09 353.85 253.64 348.31 253.64 341.50 C 253.64 334.69 248.09 329.14 241.28 329.14 C 234.47 329.14 228.93 334.69 228.93 341.50 C 228.93 348.31 234.47 353.85 241.28 353.85 M 241.28 361.85 C 230.04 361.85 220.93 352.74 220.93 341.50 C 220.93 330.26 230.04 321.14 241.28 321.14 C 252.52 321.14 261.64 330.26 261.64 341.50 C 261.64 352.74 252.52 361.85 241.28 361.85 Z" fill="#077af1" fill-rule="nonzero" group-id="11,30" node-id="283" stroke="none" target-height="40.711" target-width="40.712006" target-x="220.926" target-y="321.143"></path></g><g node-id="321"><path d="M 201.70 123.77 L 177.00 123.77 C 174.79 123.77 173.00 121.98 173.00 119.77 C 173.00 117.56 174.79 115.77 177.00 115.77 L 201.70 115.77 C 203.91 115.77 205.70 117.56 205.70 119.77 C 205.70 121.98 203.91 123.77 201.70 123.77 Z" fill="#077af1" fill-rule="nonzero" group-id="11,31" node-id="287" stroke="none" target-height="8" target-width="32.703003" target-x="173" target-y="115.770996"></path><path d="M 189.35 137.07 C 187.14 137.07 185.35 135.28 185.35 133.07 L 185.35 108.37 C 185.35 106.16 187.14 104.37 189.35 104.37 C 191.56 104.37 193.35 106.16 193.35 108.37 L 193.35 133.07 C 193.35 135.28 191.56 137.07 189.35 137.07 Z" fill="#077af1" fill-rule="nonzero" group-id="11,31" node-id="289" stroke="none" target-height="32.703003" target-width="8" target-x="185.352" target-y="104.369995"></path></g></g></svg>